<svg id="Layer_1" data-name="Layer 1" xmlns="http://www.w3.org/2000/svg" viewBox="0 0 798.34 304">
    <defs><style>.cls-1{fill:#000100}</style></defs><title>404 vector outlines</title>

    <path d="M248.44 183.1h-35.19a2.68 2.68 0 0 1-2.68-2.68V54.92a2.68 2.68 0 1 1 5.36 0v122.82h32.51a2.68 
    2.68 0 0 1 0 5.36zM372.18 293.21c-37.75 0-65.9-16.34-83.66-48.58-17.14-31.1-20.73-70.47-20.73-98 0-21.44 
    2.1-41.29 6.25-59a2.68 2.68 0 1 1 5.22 1.22c-4.05 17.3-6.11 36.74-6.11 57.77 0 26.93 3.48 65.34 20.07 95.44 
    16.75 30.39 43.31 45.8 79 45.8a2.68 2.68 0 0 1 0 5.36zM595.25 232.65h-99.32a2.68 2.68 0 0 1-2.68-2.68v-34.61a2.68 
    2.68 0 1 1 5.36 0v31.93h96.63a2.68 2.68 0 0 1 0 5.36zM214.77 259.1a2.68 2.68 0 0 1-2.68-2.68V230a2.68 2.68 0 0 1 
    2.68-2.68H250a2.68 2.68 0 0 1 0 5.36h-32.55v23.77a2.68 2.68 0 0 1-2.68 2.65zm-70-26.45H39.58A2.68 2.68 0 0 1 36.9 
    230v-49.58a2.67 2.67 0 0 1 .43-1.45L149.1 5.95a2.68 2.68 0 0 1 2.25-1.23h26.6a2.68 2.68 0 0 1 0 5.36h-25.14L42.27 
    181.21v46.07h102.5a2.68 2.68 0 0 1 0 5.36zm14.31-49.55H97.59a2.68 2.68 0 0 1-2.26-4.1L156 83a2.68 2.68 0 0 1 
    2.27-1.25h.77a2.68 2.68 0 0 1 2.68 2.68v96a2.68 2.68 0 0 1-2.64 2.67zm-56.62-5.36h53.94V92.5z" transform="translate(.76)"/>
    <path d="M446.54 259.11a2.68 2.68 0 0 1-2.13-4.31c23.41-30.74 28.33-75.81 28.33-108.19 
    0-26.93-3.48-65.34-20.07-95.44-16.75-30.39-43.31-45.8-79-45.8C355 5.36 338.57 9.66 325 18.15a2.68 2.68 0 1 
    1-2.84-4.55C336.59 4.58 353.94 0 373.71 0c37.75 0 65.9 16.34 83.66 48.58 17.14 31.1 20.73 70.47 20.73 98 0 
    33.22-5.11 79.51-29.43 111.45a2.68 2.68 0 0 1-2.13 1.08zm-72.83-20.16c-46.38 0-46.38-69.5-46.38-92.34 
    0-16.65.72-38.13 6.3-56.52a2.68 2.68 0 1 1 5.13 1.56c-5.38 17.72-6.07 38.68-6.07 55 0 21.51 0 87 41 87 22.94 
    0 36.4-20.15 40-59.88a2.68 2.68 0 0 1 5.34.48c-3.88 42.9-19.13 64.69-45.32 64.69zM672.64 288.49H617a2.68 2.68 0 
    0 1-2.68-2.68V230a2.68 2.68 0 0 1 5.36 0v53.16H670V230a2.68 2.68 0 0 1 2.68-2.68H689a2.68 2.68 0 0 1 0 5.36h-13.7v53.16a2.68 
    2.68 0 0 1-2.66 2.65zM617 183.1h-61.54a2.68 2.68 0 0 1-2.26-4.1l60.72-96a2.68 2.68 0 0 1 2.27-1.25h.81a2.68 
    2.68 0 0 1 2.68 2.68v96a2.68 2.68 0 0 1-2.68 2.67zm-56.62-5.36h53.94V92.5zm-20.11-60.85a2.68 2.68 0 0
    1-2.25-4.14L607 5.95a2.68 2.68 0 0 1 2.25-1.23h63.42a2.68 2.68 0 0 1 2.68 2.68v41.68a2.68 2.68 0 0 1-5.36 0v-39h-59.31l-68.2 
    105.58a2.68 2.68 0 0 1-2.26 1.23z" transform="translate(.76)"/>
    <path class="cls-1" d="M287.46 141.73h-48.67a1.79 1.79 0 1 1 0-3.57h48.67a1.79 1.79 0 0 1 0 3.57zM280.31 153.76h-48.67a1.79
    1.79 0 0 1 0-3.57h48.67a1.79 1.79 0 0 1 0 3.57zM62 26.36H15.77a1.79 1.79 0 1 1 0-3.57H62a1.79 1.79 0 0 1 0 3.57zM47.24 41.09H1a1.79 
    1.79 0 0 1 0-3.57h46.24a1.79 1.79 0 0 1 0 3.57zM62 41.09h-7.88a1.79 1.79 0 0 1 0-3.57H62a1.79 1.79 0 0 1 0 3.57z" transform="translate(.76)"/>
    <path class="cls-1" d="M58 45a1.79 1.79 0 0 1-1.79-1.79v-7.84a1.79 1.79 0 1 1 3.57 0v7.87A1.79 1.79 0 0 1 58 
    45zM78.7 26.36h-7.86a1.79 1.79 0 0 1 0-3.57h7.86a1.79 1.79 0 0 1 0 3.57z" transform="translate(.76)"/>
    <path class="cls-1" d="M74.77 30.29A1.79 1.79 0 0 1 73 28.5v-7.86a1.79 1.79 0 0 1 3.57 0v7.86a1.79 1.79 0 0 1-1.8 1.79zM90.38 
    292.32H67a1.79 1.79 0 0 1 0-3.57h23.38a1.79 1.79 0 0 1 0 3.57z" transform="translate(.76)"/>
    <path class="cls-1" d="M78.7 304a1.79 1.79 0 0 1-1.79-1.79v-23.36a1.79 1.79 0 1 1 3.57 0v23.37A1.79 1.79 0 0 1 78.7 
    304zM529.35 22.42H506a1.79 1.79 0 0 1 0-3.57h23.37a1.79 1.79 0 1 1 0 3.57z" transform="translate(.76)"/>
    <path class="cls-1" d="M517.67 34.11a1.79 1.79 0 0 1-1.79-1.79V9a1.79 1.79 0 0 1 3.57 0v23.32a1.79 1.79 0 0 1-1.78 1.79zM713.68 
    116H702a1.79 1.79 0 1 1 0-3.57h11.68a1.79 1.79 0 0 1 0 3.57z" transform="translate(.76)"/>
    <path class="cls-1" d="M707.83 121.84a1.79 1.79 0 0 1-1.79-1.79v-11.68a1.79 1.79 0 0 1 3.57 0v11.68a1.79 1.79 0 0 1-1.78 
    1.79zM244.63 22.42h-11.68a1.79 1.79 0 1 1 0-3.57h11.68a1.79 1.79 0 1 1 0 3.57z" transform="translate(.76)"/>
    <path class="cls-1" d="M238.79 28.26a1.79 1.79 0 0 1-1.79-1.78V14.79a1.79 1.79 0 0 1 3.57 0v11.69a1.79 1.79 0 0 1-1.78
    1.78zM535.19 272.95h-11.68a1.79 1.79 0 0 1 0-3.57h11.68a1.79 1.79 0 1 1 0 3.57z" transform="translate(.76)"/>
    <path class="cls-1" d="M529.35 278.79a1.79 1.79 0 0 1-1.79-1.79v-11.68a1.79 1.79 0 1 1 3.57 0V277a1.79 1.79 0 0 1-1.78 
    1.79zM652.39 50.87H640.7a1.79 1.79 0 0 1 0-3.57h11.68a1.79 1.79 0 0 1 0 3.57z" transform="translate(.76)"/>
    <path class="cls-1" d="M646.54 56.71a1.79 1.79 0 0 1-1.79-1.79V43.24a1.79 1.79 0 1 1 3.57 0v11.68a1.79 1.79 0 0 1-1.78 1.79zM189.63 
    191.3h-11.68a1.79 1.79 0 0 1 0-3.57h11.68a1.79 1.79 0 0 1 0 3.57z" transform="translate(.76)"/>
    <path class="cls-1" d="M183.79 197.14a1.79 1.79 0 0 1-1.79-1.79v-11.68a1.79 1.79 0 1 1 3.57 0v11.68a1.79 1.79 0 0 1-1.78 
    1.79zM312.12 95.86h-11.68a1.79 1.79 0 0 1 0-3.57h11.68a1.79 1.79 0 1 1 0 3.57z" transform="translate(.76)"/>
    <path class="cls-1" d="M306.28 101.7a1.79 1.79 0 0 1-1.79-1.79V88.23a1.79 1.79 0 0 1 3.57 0v11.68a1.79 1.79 0 0 1-1.78 1.79zM781 
    254.28h-46.18a1.79 1.79 0 0 1 0-3.57H781a1.79 1.79 0 1 1 0 3.57zM795.78 269h-46.21a1.79 1.79 0 0 1 0-3.57h46.21a1.79 1.79 0 1 1 0 
    3.57zM742.69 269h-7.86a1.79 1.79 0 0 1 0-3.57h7.86a1.79 1.79 0 1 1 0 3.57z" transform="translate(.76)"/>
    <path class="cls-1" d="M738.76 272.95a1.79 1.79 0 0 1-1.79-1.79v-7.87a1.79 1.79 0 0 1 3.57 0v7.87a1.79 1.79 0 0 1-1.78 1.79zM726 
    254.28h-7.86a1.79 1.79 0 0 1 0-3.57H726a1.79 1.79 0 1 1 0 3.57z" transform="translate(.76)"/>
    <path class="cls-1" d="M722 258.21a1.79 1.79 0 0 1-1.79-1.79v-7.86a1.79 1.79 0 0 1 3.57 0v7.86a1.79 1.79 0 0 1-1.78 1.79z"
        transform="translate(.76)"/>
</svg>