<?xml version="1.0" standalone="no"?>
<!DOCTYPE svg PUBLIC "-//W3C//DTD SVG 20010904//EN"
 "http://www.w3.org/TR/2001/REC-SVG-20010904/DTD/svg10.dtd">
<svg version="1.0" xmlns="http://www.w3.org/2000/svg"
 width="950.000000pt" height="380.000000pt" viewBox="0 0 950.000000 380.000000"
 preserveAspectRatio="xMidYMid meet">

<g transform="translate(0.000000,380.000000) scale(0.100000,-0.100000)"
fill="#000000" stroke="none">
<path d="M1365 3064 c-257 -40 -474 -151 -660 -338 -351 -353 -437 -888 -215
-1341 275 -561 948 -807 1528 -557 197 85 385 244 506 429 90 137 131 236 177
423 22 90 17 365 -9 471 -40 163 -91 282 -179 418 -47 71 -231 256 -303 302
-64 42 -176 103 -205 112 -11 3 -58 19 -105 35 -162 57 -357 73 -535 46z m460
-69 c194 -51 375 -156 520 -300 161 -161 260 -340 317 -575 8 -35 13 -118 13
-230 0 -163 -2 -182 -29 -275 -34 -120 -107 -276 -169 -364 -58 -83 -185 -212
-262 -266 -401 -285 -894 -298 -1292 -32 -219 146 -378 351 -458 590 -43 130
-55 203 -55 348 0 314 111 583 334 804 167 166 361 270 586 314 30 6 64 13 75
15 11 3 88 3 170 1 122 -3 169 -8 250 -30z"/>
<path d="M1474 2941 c-48 -30 -64 -59 -64 -117 0 -64 31 -108 89 -125 48 -14
98 7 125 51 31 53 -8 71 -44 20 -44 -62 -120 -27 -120 55 0 51 25 85 64 85 13
0 35 -9 49 -20 54 -42 78 -14 29 34 -38 36 -88 43 -128 17z"/>
<path d="M1745 2918 c-3 -7 -18 -58 -34 -113 -22 -73 -27 -103 -19 -113 18
-21 30 -9 52 53 18 52 25 60 49 63 37 5 44 -19 23 -79 -19 -52 -16 -79 8 -79
10 0 23 25 37 69 21 66 22 71 5 95 -16 25 -23 28 -71 30 -14 1 -19 7 -16 21 9
43 6 59 -12 63 -9 2 -19 -2 -22 -10z"/>
<path d="M1211 2819 c-13 -11 -30 -18 -37 -15 -7 3 -17 -1 -23 -7 -12 -16 36
-156 57 -164 27 -11 30 19 9 74 -20 54 -20 54 0 74 29 29 49 15 71 -49 14 -43
24 -58 40 -60 28 -4 28 12 3 79 -34 89 -70 110 -120 68z"/>
<path d="M1962 2757 c-15 -18 -6 -27 28 -27 34 0 65 -31 48 -48 -8 -8 -20 -7
-46 3 -46 20 -65 19 -85 -3 -33 -37 -18 -62 66 -106 l47 -25 13 22 c66 108 69
122 29 160 -34 33 -83 45 -100 24z m40 -97 c5 0 8 -10 6 -22 -2 -17 -10 -23
-27 -23 -31 0 -52 31 -31 45 8 5 21 8 28 5 8 -3 18 -5 24 -5z"/>
<path d="M980 2702 c-40 -39 -52 -72 -26 -72 8 0 24 14 36 30 22 30 60 41 60
17 0 -7 -16 -29 -35 -47 -41 -40 -42 -64 -2 -93 l27 -21 28 22 c15 13 39 30
54 40 16 9 28 23 28 29 0 15 -64 102 -88 121 -25 19 -38 15 -82 -26z m108 -85
c5 -23 -15 -47 -39 -47 -22 0 -25 21 -6 50 14 24 40 22 45 -3z"/>
<path d="M2127 2587 c-59 -53 -69 -73 -42 -83 9 -4 32 10 60 35 50 46 57 48
79 25 23 -23 21 -29 -29 -71 -44 -36 -56 -65 -34 -79 6 -3 30 13 54 36 30 30
49 41 66 38 42 -6 35 -41 -17 -86 -30 -27 -44 -47 -40 -57 9 -25 28 -17 84 34
60 55 65 80 25 116 -16 14 -31 28 -35 32 -3 5 -25 28 -47 52 -23 24 -41 48
-41 53 0 19 -29 4 -83 -45z"/>
<path d="M764 2601 c-44 -27 -64 -59 -64 -102 0 -67 74 -139 142 -139 31 0 95
51 108 86 13 33 -6 94 -30 94 -24 0 -29 -18 -16 -52 9 -23 7 -31 -14 -53 -34
-36 -71 -33 -115 10 -19 20 -35 45 -35 56 0 31 44 69 80 69 23 0 30 5 30 19 0
34 -40 40 -86 12z"/>
<path d="M1536 2598 c-3 -7 -6 -39 -9 -70 -3 -48 -9 -63 -43 -103 -21 -26 -48
-61 -60 -78 -12 -17 -31 -34 -44 -37 -38 -9 -46 -32 -33 -94 14 -67 2 -122
-28 -131 -16 -5 -31 2 -58 28 -20 19 -52 43 -71 52 -19 10 -51 30 -70 46 -19
15 -46 30 -60 34 -14 4 -43 20 -64 36 -63 46 -86 35 -45 -20 22 -30 23 -51 18
-246 -1 -33 2 -75 6 -93 5 -23 2 -45 -10 -71 -22 -50 -17 -71 24 -96 48 -28
169 -144 177 -169 6 -17 -7 -33 -65 -87 -39 -36 -71 -71 -71 -77 0 -9 43 -12
153 -12 160 0 257 12 294 36 12 8 32 14 43 14 21 0 21 -3 18 -152 -3 -143 -5
-156 -30 -204 -19 -37 -24 -54 -16 -62 19 -19 46 5 67 64 17 43 23 89 27 197
3 78 7 148 10 155 3 10 12 9 41 -4 51 -21 127 -36 188 -37 77 -1 235 15 241
24 3 5 -17 24 -44 44 -27 19 -55 49 -62 65 -11 27 -10 34 10 63 13 17 61 65
107 106 45 40 83 77 83 81 0 4 -16 17 -35 29 -25 14 -35 27 -35 45 0 13 16 47
35 76 19 29 35 59 35 67 0 8 -12 30 -26 49 -25 32 -26 38 -16 72 42 141 45
172 17 172 -7 0 -18 -7 -25 -16 -19 -22 -88 -61 -160 -89 -42 -16 -74 -38
-100 -67 -32 -36 -41 -41 -57 -32 -22 13 -30 87 -13 120 18 33 8 57 -34 79
-27 14 -42 31 -51 57 -7 20 -33 60 -57 87 -30 33 -50 67 -60 102 -14 52 -34
74 -42 47z"/>
<path d="M520 2080 c-24 -24 -26 -53 -5 -70 13 -11 15 -9 15 13 0 32 19 47 48
36 25 -9 28 -19 10 -37 -9 -9 -9 -15 1 -24 10 -11 15 -9 27 6 28 39 8 76 -48
90 -20 5 -33 1 -48 -14z"/>
<path d="M2549 2084 c-7 -8 -21 -13 -30 -11 -24 6 -46 -20 -31 -35 20 -20 105
22 95 48 -7 18 -17 18 -34 -2z"/>
<path d="M2531 2001 c-35 -27 -22 -56 21 -47 38 8 50 23 37 48 -12 23 -28 22
-58 -1z"/>
<path d="M504 1965 c-21 -15 -10 -52 18 -61 25 -8 62 25 53 48 -8 21 -50 29
-71 13z"/>
<path d="M2533 1914 c-7 -3 -13 -16 -13 -29 0 -16 7 -25 26 -29 32 -8 56 10
52 38 -3 21 -38 31 -65 20z"/>
<path d="M522 1871 c-11 -7 -11 -9 2 -14 23 -9 20 -24 -6 -31 -19 -5 -20 -8
-9 -15 18 -11 71 13 71 32 0 29 -32 45 -58 28z"/>
<path d="M2473 1804 c-12 -32 11 -49 68 -49 l54 0 3 35 c2 30 1 33 -11 19 -15
-20 -78 -20 -85 -1 -5 17 -22 15 -29 -4z"/>
<path d="M500 1765 c-15 -18 4 -55 29 -55 25 0 63 32 53 46 -12 18 -69 25 -82
9z"/>
<path d="M543 1686 c-7 -8 -18 -16 -25 -18 -18 -6 6 -58 28 -58 12 0 14 6 9
30 -7 33 9 42 18 10 3 -14 14 -20 31 -20 35 0 33 13 -8 44 -40 30 -37 29 -53
12z"/>
<path d="M2497 1663 c-30 -29 26 -90 58 -63 8 7 15 19 15 28 0 28 -54 54 -73
35z"/>
<path d="M566 1585 c-11 -8 -17 -17 -14 -21 7 -6 48 17 48 28 0 12 -13 9 -34
-7z"/>
<path d="M2447 1580 c13 -14 85 -42 91 -35 7 6 -42 33 -73 41 -24 5 -28 4 -18
-6z"/>
<path d="M578 1534 c-24 -13 -26 -17 -16 -39 12 -28 34 -31 61 -11 21 16 22
52 1 60 -9 3 -16 6 -17 5 -1 -1 -14 -8 -29 -15z"/>
<path d="M2431 1510 c14 -40 55 -68 78 -53 39 25 12 62 -56 77 l-32 7 10 -31z
m59 -20 c0 -5 -7 -10 -15 -10 -8 0 -15 5 -15 10 0 6 7 10 15 10 8 0 15 -4 15
-10z"/>
<path d="M2395 1428 c4 -18 15 -42 26 -52 16 -18 21 -18 44 -6 34 18 31 35
-12 65 -52 35 -66 33 -58 -7z m57 -33 c0 -5 -5 -11 -11 -13 -6 -2 -11 4 -11
13 0 9 5 15 11 13 6 -2 11 -8 11 -13z"/>
<path d="M662 1410 c-18 -11 -35 -26 -38 -34 -8 -20 25 -66 47 -66 23 0 25 18
4 26 -20 8 -19 40 1 48 28 11 42 7 47 -14 6 -23 22 -26 30 -6 7 17 -28 66 -46
66 -7 0 -27 -9 -45 -20z"/>
<path d="M2380 1352 c0 -16 39 -44 51 -37 8 6 5 13 -12 26 -26 20 -39 24 -39
11z"/>
<path d="M2313 1334 c-3 -9 -1 -25 5 -35 12 -19 16 -49 7 -49 -3 0 -17 7 -30
16 -25 16 -45 12 -45 -9 0 -7 18 -27 40 -45 43 -35 68 -36 49 -1 -9 18 -8 20
13 17 19 -2 23 1 21 23 -1 22 2 26 18 22 29 -8 23 9 -14 38 -50 39 -57 42 -64
23z"/>
<path d="M708 1299 c-22 -12 -23 -42 -3 -59 12 -10 20 -9 41 4 48 32 12 85
-38 55z"/>
<path d="M765 1220 c-20 -21 -24 -30 -14 -30 8 0 20 5 26 11 12 12 33 4 33
-12 0 -5 -7 -9 -15 -9 -8 0 -15 -7 -15 -15 0 -8 4 -15 9 -15 5 0 11 7 15 15 3
8 10 15 16 15 14 0 12 -37 -2 -43 -7 -2 -9 -8 -5 -13 4 -4 19 4 33 18 29 29
24 45 -26 85 l-27 22 -28 -29z"/>
<path d="M898 1159 c-10 -5 -18 -16 -18 -23 0 -8 -7 -16 -15 -20 -22 -8 -18
-39 6 -54 18 -12 24 -11 45 9 25 23 32 49 14 49 -6 0 -8 11 -4 25 7 27 -1 30
-28 14z m10 -60 c-2 -6 -8 -10 -13 -10 -5 0 -11 4 -13 10 -2 6 4 11 13 11 9 0
15 -5 13 -11z"/>
<path d="M2225 1139 c-10 -15 3 -25 16 -12 7 7 7 13 1 17 -6 3 -14 1 -17 -5z"/>
<path d="M2096 1071 c-17 -18 -17 -21 -1 -45 20 -29 46 -34 66 -10 10 13 10
20 -3 42 -21 34 -39 38 -62 13z"/>
<path d="M947 1062 c-22 -24 -22 -49 2 -61 14 -8 23 -5 41 13 12 14 20 32 18
43 -4 25 -40 28 -61 5z"/>
<path d="M1021 1009 c-27 -36 -15 -61 14 -29 10 11 26 20 37 20 21 0 23 11 6
28 -19 19 -32 14 -57 -19z"/>
<path d="M2016 1021 c-17 -19 -17 -21 1 -45 20 -28 42 -33 61 -14 19 19 14 31
-12 24 -30 -7 -42 7 -21 24 8 7 15 16 15 21 0 16 -26 10 -44 -10z"/>
<path d="M1940 985 c-13 -16 -6 -47 16 -66 19 -16 30 -4 14 16 -10 12 -10 19
-2 27 16 16 15 38 -2 38 -7 0 -19 -7 -26 -15z"/>
<path d="M1168 963 c-28 -33 -30 -44 -12 -64 23 -26 38 -24 59 7 15 23 15 27
0 50 -18 29 -27 30 -47 7z m32 -39 c0 -17 -22 -14 -28 4 -2 7 3 12 12 12 9 0
16 -7 16 -16z"/>
<path d="M1264 959 c-19 -21 -30 -89 -14 -89 9 0 50 80 50 98 0 18 -15 14 -36
-9z"/>
<path d="M1389 941 c-15 -12 -22 -29 -23 -56 -1 -32 3 -41 26 -54 24 -14 28
-14 47 3 20 18 22 18 39 3 25 -23 47 -21 65 6 15 22 15 22 31 2 15 -20 15 -20
16 3 0 26 12 28 31 6 12 -14 14 -13 22 8 l9 23 9 -22 c4 -13 13 -23 19 -23 14
0 13 43 -2 58 -19 19 -73 14 -101 -8 l-26 -21 -13 21 c-17 27 -34 25 -63 -6
-32 -34 -80 -31 -80 6 0 22 4 25 33 22 27 -2 33 1 30 14 -5 27 -44 36 -69 15z
m131 -82 c0 -5 -7 -9 -15 -9 -15 0 -20 12 -9 23 8 8 24 -1 24 -14z"/>
<path d="M1853 944 c-9 -23 14 -64 36 -64 23 0 47 25 31 35 -5 3 -10 15 -10
26 0 24 -48 27 -57 3z"/>
<path d="M1763 933 c-40 -5 -53 -21 -46 -55 6 -30 26 -40 21 -11 -4 24 29 29
35 6 4 -16 6 -15 12 5 9 28 21 28 29 0 4 -18 8 -20 18 -10 10 10 9 18 -4 39
-18 31 -20 31 -65 26z"/>
<path d="M3138 2746 c-94 -25 -108 -58 -108 -248 0 -185 15 -215 121 -238 65
-15 207 0 245 25 26 17 48 77 42 115 -3 22 -9 25 -45 28 -42 3 -43 2 -43 -27
0 -20 -8 -36 -27 -51 -24 -19 -38 -21 -95 -18 -104 6 -108 12 -108 174 0 131
0 133 26 153 21 17 41 21 93 21 70 -1 101 -14 101 -46 0 -33 15 -46 51 -42 34
3 34 4 33 50 -1 83 -56 119 -179 117 -33 0 -81 -6 -107 -13z"/>
<path d="M6375 2749 c-90 -22 -115 -74 -115 -242 0 -183 20 -225 117 -246 58
-14 160 -9 220 10 47 15 75 59 71 111 -3 43 -3 43 -43 43 -36 0 -40 -2 -46
-33 -10 -51 -22 -57 -110 -57 -114 0 -119 7 -119 172 0 118 1 125 25 148 21
22 33 25 95 25 79 0 110 -19 110 -66 0 -23 3 -25 42 -22 51 4 58 20 33 84 -11
30 -27 50 -48 61 -38 20 -173 27 -232 12z"/>
<path d="M4923 2734 c-3 -8 -3 -47 -1 -85 3 -38 2 -71 -2 -74 -4 -2 -24 5 -46
15 -46 24 -71 25 -122 5 -57 -23 -72 -57 -72 -163 0 -107 21 -149 85 -170 42
-14 103 -4 134 21 10 9 16 7 26 -7 9 -11 23 -16 42 -14 l28 3 3 243 2 242 -35
0 c-23 0 -38 -6 -42 -16z m-28 -209 c22 -21 25 -33 25 -98 0 -82 -10 -100 -67
-112 -72 -15 -98 23 -91 136 3 55 8 74 23 85 30 22 83 17 110 -11z"/>
<path d="M5088 2733 c-8 -31 3 -43 37 -43 38 0 49 11 40 40 -8 27 -70 29 -77
3z"/>
<path d="M6744 2737 c-2 -7 -3 -116 -2 -242 l3 -230 35 0 35 0 3 122 c3 118 3
123 29 143 28 22 58 25 97 10 25 -9 25 -10 28 -142 l3 -133 35 0 35 0 3 131
c1 73 -2 143 -8 158 -20 52 -118 72 -178 36 -18 -11 -35 -20 -37 -20 -3 0 -5
41 -5 90 l0 90 -35 0 c-20 0 -38 -6 -41 -13z"/>
<path d="M8152 2508 l3 -243 28 -3 c18 -2 33 3 41 14 12 16 14 16 41 -2 36
-23 114 -24 150 0 38 25 55 74 55 158 -1 101 -24 153 -77 167 -56 16 -84 13
-122 -10 -18 -11 -36 -17 -40 -14 -3 4 -6 43 -6 88 l0 82 -38 3 -37 3 2 -243z
m223 15 c22 -28 20 -155 -2 -182 -27 -33 -82 -38 -116 -11 -25 20 -27 26 -27
100 0 74 2 80 28 100 32 26 95 23 117 -7z"/>
<path d="M3573 2599 c-36 -11 -68 -51 -59 -74 7 -19 65 -20 72 -1 13 35 96 44
131 14 17 -13 28 -77 16 -89 -6 -6 -24 -4 -48 7 -49 20 -130 11 -162 -19 -18
-16 -23 -31 -23 -72 0 -67 18 -90 80 -105 43 -10 58 -10 101 4 38 13 54 14 64
6 8 -6 24 -10 37 -8 23 3 23 6 26 139 2 123 1 138 -17 161 -33 42 -140 60
-218 37z m147 -204 c43 -39 6 -85 -69 -85 -76 0 -106 45 -60 91 17 17 30 20
66 16 24 -2 53 -13 63 -22z"/>
<path d="M4028 2590 c-32 -17 -38 -17 -49 -4 -7 9 -25 14 -43 12 l-31 -3 0
-165 0 -165 35 0 35 0 3 122 c3 118 3 123 29 143 28 22 73 26 104 10 17 -10
19 -22 19 -133 0 -67 4 -128 9 -135 5 -8 21 -12 37 -10 l29 3 3 138 c3 153 -2
171 -53 193 -47 19 -84 18 -127 -6z"/>
<path d="M4360 2597 c-35 -12 -67 -57 -55 -77 11 -18 57 -10 87 15 56 47 138
18 138 -49 0 -18 -2 -35 -5 -38 -3 -3 -24 1 -47 9 -57 19 -133 9 -165 -23 -28
-28 -32 -101 -7 -138 24 -38 101 -53 166 -31 36 11 54 13 61 6 6 -6 24 -11 39
-11 l28 0 0 143 c0 129 -2 145 -20 165 -37 39 -147 54 -220 29z m144 -198 c52
-41 22 -89 -57 -89 -73 0 -107 38 -74 81 26 34 92 38 131 8z"/>
<path d="M5313 2600 c-35 -11 -63 -44 -63 -72 0 -28 56 -23 92 7 53 45 117 25
130 -39 9 -44 -2 -66 -24 -49 -40 32 -148 24 -185 -13 -28 -28 -32 -107 -8
-141 23 -33 108 -49 163 -30 32 11 50 12 71 4 56 -21 61 -11 61 132 0 141 -8
172 -48 191 -36 16 -150 22 -189 10z m149 -210 c33 -41 -2 -80 -73 -80 -50 0
-79 18 -79 49 0 20 19 46 40 55 30 11 95 -2 112 -24z"/>
<path d="M5765 2589 c-36 -20 -40 -20 -51 -4 -8 10 -23 15 -41 13 l-28 -3 0
-165 0 -165 35 0 35 0 5 123 c5 115 7 125 29 143 27 22 79 25 107 5 17 -13 19
-29 21 -138 1 -68 2 -126 3 -130 0 -14 70 -9 71 5 4 69 -5 275 -13 290 -12 22
-67 47 -105 47 -16 0 -46 -9 -68 -21z"/>
<path d="M7202 2598 c-38 -13 -67 -50 -58 -73 8 -23 55 -18 88 10 38 32 81 32
113 0 25 -24 34 -78 16 -89 -5 -3 -23 1 -40 10 -45 23 -135 11 -167 -21 -29
-29 -33 -102 -8 -140 24 -36 105 -52 164 -31 30 10 48 12 56 5 7 -6 25 -9 41
-7 l28 3 3 135 c3 146 -3 170 -46 190 -37 16 -151 21 -190 8z m145 -202 c27
-24 27 -26 13 -53 -13 -23 -23 -29 -60 -31 -82 -6 -113 19 -88 74 19 41 93 46
135 10z"/>
<path d="M7656 2589 c-35 -19 -40 -19 -48 -5 -5 9 -22 16 -38 16 l-30 0 0
-171 0 -170 33 3 32 3 5 123 c5 115 7 125 29 143 29 24 83 25 104 1 13 -14 17
-44 19 -142 l3 -125 29 -3 c16 -2 33 2 37 10 5 7 9 62 8 123 -1 106 0 110 25
132 15 13 39 23 54 23 53 0 57 -9 62 -152 l5 -133 35 0 35 0 3 139 c3 159 -3
178 -67 197 -48 14 -102 5 -126 -21 -23 -25 -27 -25 -71 5 -44 30 -86 31 -138
4z"/>
<path d="M8620 2599 c-49 -15 -66 -33 -79 -84 -25 -99 -6 -206 42 -235 41 -25
111 -33 177 -20 60 11 90 36 90 76 0 21 -5 24 -34 24 -23 0 -38 -7 -47 -21
-17 -24 -82 -35 -121 -20 -32 12 -51 77 -27 92 8 5 63 9 123 9 l109 0 -6 58
c-6 66 -20 96 -55 112 -36 16 -132 21 -172 9z m134 -62 c12 -9 17 -23 14 -42
-3 -29 -4 -30 -66 -33 -88 -4 -117 23 -72 68 23 23 96 28 124 7z"/>
<path d="M9038 2590 c-33 -18 -38 -18 -46 -4 -6 10 -19 14 -38 12 l-29 -3 0
-165 0 -165 35 0 35 0 5 128 c4 112 7 130 24 143 37 27 86 12 86 -27 0 -25 26
-42 55 -35 21 5 25 12 25 42 0 36 -18 63 -57 83 -30 15 -52 13 -95 -9z"/>
<path d="M5092 2433 l3 -168 33 -3 c18 -2 32 1 32 7 1 6 1 79 1 161 0 83 0
155 -1 160 0 6 -16 10 -35 10 l-35 0 2 -167z"/>
<path d="M4777 2040 c-104 -18 -129 -55 -135 -200 -9 -217 13 -270 120 -292
43 -9 80 -9 145 -1 79 10 90 14 116 43 24 27 28 39 25 78 l-3 47 -40 0 c-37 0
-40 -2 -46 -35 -10 -48 -32 -60 -111 -60 -60 0 -72 3 -93 25 -24 23 -25 30
-25 148 0 158 7 169 101 175 82 5 110 -6 124 -49 11 -31 15 -34 51 -34 38 0
39 1 36 35 -4 52 -22 89 -51 104 -34 17 -153 26 -214 16z"/>
<path d="M5216 1889 c-33 -5 -58 -17 -75 -34 -25 -24 -26 -31 -26 -133 0 -133
10 -154 84 -172 70 -17 164 -5 199 25 25 22 27 29 30 125 4 114 -6 154 -47
174 -35 18 -105 24 -165 15z m117 -68 c15 -15 28 -103 21 -146 -3 -22 -13 -48
-22 -57 -19 -23 -89 -24 -120 -2 -20 14 -22 24 -22 97 0 45 4 87 8 94 19 30
109 40 135 14z"/>
<path d="M5676 1892 c-16 -2 -40 -11 -54 -20 -23 -15 -25 -15 -37 2 -9 11 -23
16 -42 14 l-28 -3 0 -165 0 -165 35 0 35 0 3 121 c3 134 9 148 69 160 26 5 37
1 58 -20 26 -26 26 -30 25 -134 -1 -59 -1 -113 -1 -119 1 -8 15 -13 36 -13
l35 0 0 118 c1 122 5 138 48 161 29 16 79 5 92 -19 6 -10 10 -73 10 -140 l0
-121 38 3 37 3 3 110 c3 136 -5 182 -39 208 -37 27 -123 26 -153 -2 -28 -26
-48 -26 -70 -2 -18 20 -53 28 -100 23z"/>
<path d="M7906 1888 c-33 -4 -58 -15 -75 -33 -25 -24 -26 -31 -26 -133 0 -91
3 -111 20 -134 26 -35 103 -53 186 -43 49 6 63 12 84 37 35 41 29 62 -18 66
-20 2 -37 -1 -37 -7 0 -38 -94 -56 -138 -25 -40 28 -21 113 20 88 18 -11 189
7 195 22 2 7 -1 38 -7 69 -8 41 -18 60 -37 72 -32 21 -104 31 -167 21z m98
-58 c30 -11 46 -57 25 -71 -8 -5 -43 -8 -79 -7 -65 3 -65 3 -65 33 0 46 59 68
119 45z"/>
<path d="M6130 1720 l0 -170 35 0 c21 0 35 5 36 13 0 6 0 57 -1 112 -1 88 1
104 19 127 28 34 74 45 106 24 23 -15 25 -21 27 -144 l3 -127 35 0 35 0 5 122
c5 134 11 148 67 159 26 5 37 1 57 -19 25 -25 26 -31 26 -147 l0 -120 35 0 35
0 0 145 c0 142 -1 147 -25 170 -20 21 -34 25 -83 25 -44 0 -66 -5 -85 -20 -14
-11 -28 -20 -32 -20 -4 0 -18 9 -32 20 -33 26 -118 27 -152 3 -22 -15 -25 -15
-36 0 -7 10 -26 17 -44 17 l-31 0 0 -170z"/>
<path d="M6784 1871 c-39 -24 -54 -65 -54 -153 0 -132 37 -172 159 -173 42 0
88 3 103 8 30 8 63 59 54 83 -9 23 -60 17 -84 -11 -17 -19 -32 -25 -63 -25
-52 0 -73 12 -89 50 -15 37 -5 52 36 52 16 0 69 2 118 5 l88 5 -6 55 c-8 68
-19 89 -56 108 -44 23 -166 20 -206 -4z m156 -44 c18 -9 25 -21 25 -42 l0 -30
-75 0 -75 0 0 30 c0 33 30 55 75 55 14 0 36 -6 50 -13z"/>
<path d="M7120 1720 l0 -170 35 0 c21 0 35 5 36 13 0 6 0 55 -1 109 -2 110 12
151 56 162 31 8 61 -14 66 -48 2 -16 10 -21 33 -21 27 0 30 3 33 36 5 55 -28
89 -84 89 -25 0 -55 -7 -68 -15 -21 -14 -24 -14 -36 0 -7 8 -25 15 -41 15
l-29 0 0 -170z"/>
<path d="M7492 1877 c-46 -27 -55 -53 -55 -164 0 -95 2 -105 23 -128 31 -33
92 -49 157 -41 90 10 123 38 123 102 0 23 -3 25 -37 22 -29 -2 -39 -8 -41 -23
-5 -29 -31 -45 -74 -45 -62 0 -78 24 -78 119 0 74 2 81 26 100 15 12 37 21 50
21 32 0 74 -21 74 -36 0 -19 37 -36 60 -29 28 9 25 48 -4 82 -23 26 -30 28
-113 31 -59 1 -96 -2 -111 -11z"/>
<path d="M4376 1865 c-9 -9 -16 -27 -16 -40 0 -13 -10 -33 -22 -45 l-22 -20
22 -20 c19 -18 22 -31 22 -106 0 -83 1 -85 23 -82 21 3 22 8 22 87 0 87 2 91
48 105 26 8 16 30 -15 34 -28 3 -45 29 -29 45 5 5 19 14 32 21 33 17 28 31
-12 34 -24 2 -42 -3 -53 -13z"/>
<path d="M4100 1760 c-11 -11 -22 -31 -26 -45 -10 -41 1 -123 20 -144 23 -26
84 -35 135 -21 52 14 64 41 59 129 -5 83 -25 101 -109 101 -45 0 -64 -5 -79
-20z m128 -32 c18 -18 15 -113 -4 -132 -23 -24 -70 -20 -88 6 -18 25 -21 74
-6 112 8 22 16 26 48 26 21 0 43 -5 50 -12z"/>
</g>
</svg>
